<svg xmlns="http://www.w3.org/2000/svg" xmlns:xlink="http://www.w3.org/1999/xlink" version="1.1" x="0px" y="0px" viewBox="0 0 100 125" enable-background="new 0 0 100 100" xml:space="preserve"><g><g><path d="M29.454,77.144c-0.12,0-0.24-0.029-0.349-0.086l-13.909-7.32c-0.247-0.129-0.401-0.385-0.401-0.664v-10.25    c0-0.263,0.138-0.506,0.362-0.642c0.225-0.135,0.505-0.144,0.737-0.021l13.909,7.321c0.247,0.129,0.401,0.385,0.401,0.664v10.249    c0,0.263-0.138,0.506-0.362,0.642C29.723,77.107,29.588,77.144,29.454,77.144z M16.295,68.621l12.409,6.531v-8.554l-12.409-6.532    V68.621z"/></g><g><g><path d="M36.685,88.203c-0.12,0-0.24-0.029-0.349-0.086L7.965,73.184c-0.247-0.129-0.401-0.385-0.401-0.664V14.286     c0-0.263,0.138-0.506,0.362-0.642c0.225-0.136,0.505-0.144,0.737-0.021l28.37,14.933c0.247,0.129,0.401,0.385,0.401,0.664v58.234     c0,0.263-0.138,0.506-0.362,0.642C36.953,88.167,36.819,88.203,36.685,88.203z M9.064,72.068l26.87,14.143v-56.54L9.064,15.528     V72.068z"/></g><g><path d="M36.685,88.203c-0.27,0-0.53-0.146-0.664-0.401c-0.193-0.366-0.052-0.82,0.314-1.013l27.97-14.722v-56.54L37.034,29.882     c-0.367,0.191-0.82,0.052-1.013-0.314c-0.193-0.366-0.052-0.82,0.314-1.013l28.371-14.933c0.232-0.122,0.512-0.115,0.737,0.021     c0.225,0.136,0.362,0.379,0.362,0.642v58.234c0,0.278-0.154,0.534-0.401,0.664L37.034,88.117     C36.922,88.175,36.803,88.203,36.685,88.203z"/></g><g><path d="M93.426,88.203c-0.12,0-0.24-0.029-0.349-0.086l-28.37-14.932c-0.367-0.193-0.507-0.646-0.314-1.013     c0.193-0.367,0.647-0.507,1.013-0.314l27.271,14.353v-56.54L64.707,14.951c-0.367-0.193-0.507-0.646-0.314-1.013     c0.193-0.367,0.647-0.507,1.013-0.314l28.37,14.932c0.247,0.129,0.401,0.385,0.401,0.664v58.234c0,0.263-0.138,0.506-0.362,0.642     C93.694,88.167,93.56,88.203,93.426,88.203z"/></g></g><g><g><path d="M82.974,61.347c-0.039,0-0.077-0.003-0.116-0.009c-0.208-0.033-0.393-0.151-0.509-0.327     c-0.292-0.44-7.156-10.828-7.156-14.891c0-3.372,2.237-5.726,5.441-5.726c0.835,0,1.707,0.158,2.59,0.47     c4.153,1.464,7.532,6.048,7.532,10.219c0,4.125-6.564,9.5-7.312,10.099C83.309,61.29,83.143,61.347,82.974,61.347z      M80.633,41.894c-2.394,0-3.941,1.659-3.941,4.226c0,2.785,4.296,10.023,6.448,13.361c2.156-1.854,6.114-5.796,6.114-8.398     c0-3.585-2.93-7.535-6.531-8.804C82.001,42.023,81.298,41.894,80.633,41.894z"/></g><g><path d="M83.799,51.983c-0.35,0-0.711-0.065-1.075-0.193c-1.672-0.589-2.983-2.375-2.983-4.065c0-1.475,0.989-2.505,2.406-2.505     c0.35,0,0.712,0.065,1.077,0.194c1.672,0.59,2.981,2.375,2.981,4.064C86.205,50.953,85.216,51.983,83.799,51.983z M82.147,46.719     c-0.576,0-0.906,0.366-0.906,1.005c0,1.058,0.908,2.272,1.982,2.651c0.855,0.303,1.482-0.06,1.482-0.898     c0-1.058-0.907-2.271-1.981-2.65C82.521,46.755,82.327,46.719,82.147,46.719z"/></g></g><g><g><path d="M10.757,44.766c-0.038,0-0.075-0.002-0.113-0.008c-0.602-0.091-1.235-0.137-1.883-0.137c-0.414,0-0.75-0.336-0.75-0.75     s0.336-0.75,0.75-0.75c0.723,0,1.432,0.052,2.108,0.154c0.409,0.062,0.691,0.444,0.629,0.854     C11.442,44.5,11.122,44.766,10.757,44.766z"/></g><g><path d="M32.881,58.606c-0.399,0-0.731-0.314-0.749-0.717c-0.019-0.414,0.302-0.764,0.716-0.782     c1.276-0.057,2.43-0.292,3.526-0.718c0.386-0.151,0.821,0.04,0.971,0.427c0.15,0.386-0.041,0.821-0.427,0.971     c-1.251,0.487-2.561,0.755-4.003,0.819C32.903,58.606,32.892,58.606,32.881,58.606z M29.05,58.227     c-0.063,0-0.126-0.008-0.19-0.024c-1.326-0.346-2.545-0.904-3.729-1.705c-0.343-0.232-0.433-0.699-0.201-1.042     c0.233-0.344,0.699-0.432,1.042-0.201c1.04,0.704,2.108,1.193,3.267,1.496c0.401,0.104,0.641,0.515,0.536,0.915     C29.688,58.004,29.383,58.227,29.05,58.227z M73.456,57.196c-0.123,0-0.248-0.03-0.362-0.094     c-1.095-0.605-2.151-1.408-3.229-2.455c-0.297-0.289-0.304-0.763-0.016-1.061c0.289-0.296,0.764-0.304,1.061-0.016     c0.981,0.952,1.933,1.678,2.909,2.218c0.363,0.2,0.494,0.657,0.293,1.019C73.976,57.057,73.719,57.196,73.456,57.196z      M39.954,55.87c-0.217,0-0.433-0.094-0.581-0.275c-0.262-0.32-0.215-0.793,0.106-1.055c0.828-0.677,1.646-1.492,2.651-2.64     c0.273-0.312,0.746-0.344,1.059-0.07c0.312,0.273,0.343,0.747,0.07,1.059c-1.062,1.213-1.936,2.081-2.831,2.813     C40.289,55.814,40.121,55.87,39.954,55.87z M22.648,54.081c-0.2,0-0.399-0.079-0.546-0.236c-0.757-0.805-1.478-1.664-2.174-2.495     l-0.39-0.464c-0.267-0.316-0.226-0.79,0.091-1.057c0.317-0.266,0.79-0.226,1.057,0.091l0.392,0.466     c0.683,0.815,1.39,1.657,2.118,2.431c0.284,0.302,0.269,0.776-0.033,1.06C23.018,54.014,22.833,54.081,22.648,54.081z      M67.788,51.989c-0.214,0-0.426-0.091-0.575-0.267l-0.31-0.37c-0.709-0.846-1.443-1.721-2.201-2.52     c-0.285-0.3-0.273-0.775,0.028-1.06c0.299-0.286,0.774-0.274,1.06,0.028c0.79,0.832,1.539,1.725,2.263,2.588l0.309,0.368     c0.267,0.317,0.226,0.791-0.091,1.057C68.13,51.932,67.958,51.989,67.788,51.989z M45.204,50.191     c-0.174,0-0.35-0.061-0.492-0.185c-0.312-0.272-0.345-0.746-0.073-1.058c0.716-0.822,1.683-1.886,2.813-2.825     c0.319-0.266,0.792-0.221,1.056,0.097c0.265,0.319,0.221,0.792-0.097,1.056c-0.818,0.68-1.632,1.499-2.641,2.657     C45.622,50.104,45.413,50.191,45.204,50.191z M17.504,48.292c-0.187,0-0.374-0.069-0.519-0.208     c-0.983-0.943-1.94-1.66-2.925-2.191c-0.365-0.197-0.501-0.652-0.304-1.016c0.197-0.366,0.651-0.5,1.016-0.304     c1.106,0.597,2.169,1.391,3.251,2.428c0.299,0.287,0.309,0.762,0.022,1.061C17.898,48.215,17.701,48.292,17.504,48.292z      M62.324,46.543c-0.143,0-0.286-0.041-0.414-0.125c-1.042-0.69-2.116-1.168-3.283-1.46c-0.402-0.101-0.646-0.508-0.545-0.91     c0.101-0.401,0.508-0.645,0.91-0.545c1.334,0.334,2.56,0.878,3.747,1.664c0.345,0.229,0.44,0.694,0.211,1.04     C62.806,46.425,62.567,46.543,62.324,46.543z M51.219,45.448c-0.297,0-0.579-0.178-0.696-0.471     c-0.154-0.384,0.032-0.821,0.417-0.975c1.25-0.502,2.557-0.784,3.996-0.861c0.449-0.006,0.767,0.295,0.79,0.708     c0.022,0.414-0.295,0.767-0.708,0.79c-1.272,0.068-2.423,0.315-3.518,0.755C51.407,45.431,51.312,45.448,51.219,45.448z"/></g><g><path d="M79.223,58.62c-0.723,0-1.432-0.052-2.108-0.154c-0.409-0.062-0.691-0.444-0.629-0.854     c0.062-0.41,0.447-0.695,0.854-0.629c0.602,0.091,1.235,0.137,1.883,0.137c0.414,0,0.75,0.336,0.75,0.75     S79.637,58.62,79.223,58.62z"/></g></g></g><text x="0" y="115" fill="#000000" font-size="5px" font-weight="bold" font-family="'Helvetica Neue', Helvetica, Arial-Unicode, Arial, Sans-serif">Created by Linseed Studio</text><text x="0" y="120" fill="#000000" font-size="5px" font-weight="bold" font-family="'Helvetica Neue', Helvetica, Arial-Unicode, Arial, Sans-serif">from the Noun Project</text></svg>